<svg id="Capa_1" data-name="Capa 1" xmlns="http://www.w3.org/2000/svg" viewBox="0 0 150 150"><defs><style>.cls-1{fill:#1d1d1b;}.cls-2{fill:#7b6a58;}.cls-3{fill:#634e42;}.cls-4{fill:#8e5f68;}.cls-5{fill:#fedaa8;}.cls-6{fill:#e1c297;}.cls-7{fill:#76404d;}.cls-8{fill:#a88387;}.cls-9{fill:#36a9e1;}.cls-10{fill:#1d71b8;}.cls-11{fill:#575756;}.cls-12{fill:#3c3c3b;}.cls-13{fill:#7d4e24;}.cls-14{fill:#683c11;}.cls-15{fill:#432918;}</style></defs><title>0001</title><rect class="cls-1" x="18.71" y="70.98" width="8.04" height="8.04"/><rect class="cls-2" x="26.75" y="70.98" width="8.04" height="8.04"/><rect class="cls-3" x="34.8" y="70.98" width="8.04" height="8.04"/><rect class="cls-3" x="42.84" y="70.98" width="8.04" height="8.04"/><rect class="cls-3" x="50.88" y="70.98" width="8.04" height="8.04"/><rect class="cls-1" x="58.92" y="70.98" width="8.04" height="8.04"/><rect class="cls-1" x="66.96" y="70.98" width="8.04" height="8.04"/><rect class="cls-1" x="75" y="70.98" width="8.04" height="8.04"/><rect class="cls-1" x="83.04" y="70.98" width="8.04" height="8.04"/><rect class="cls-3" x="91.08" y="70.98" width="8.04" height="8.04"/><rect class="cls-2" x="99.12" y="70.98" width="8.04" height="8.04"/><rect class="cls-2" x="107.16" y="70.98" width="8.04" height="8.04"/><rect class="cls-3" x="115.2" y="70.98" width="8.04" height="8.04"/><rect class="cls-1" x="123.25" y="70.98" width="8.04" height="8.04"/><rect class="cls-1" x="18.71" y="79.02" width="8.04" height="8.04"/><rect class="cls-2" x="26.75" y="79.02" width="8.04" height="8.04"/><rect class="cls-3" x="34.8" y="79.02" width="8.04" height="8.04"/><rect class="cls-1" x="42.84" y="79.02" width="8.04" height="8.04"/><rect class="cls-3" x="50.88" y="79.02" width="8.04" height="8.04"/><rect class="cls-4" x="58.92" y="79.02" width="8.04" height="8.04"/><rect class="cls-5" x="66.96" y="79.02" width="8.04" height="8.04"/><rect class="cls-6" x="75" y="79.02" width="8.04" height="8.04"/><rect class="cls-7" x="83.04" y="79.02" width="8.04" height="8.04"/><rect class="cls-3" x="91.08" y="79.02" width="8.04" height="8.04"/><rect class="cls-1" x="99.12" y="79.02" width="8.04" height="8.04"/><rect class="cls-2" x="107.16" y="79.02" width="8.04" height="8.04"/><rect class="cls-3" x="115.2" y="79.02" width="8.04" height="8.04"/><rect class="cls-1" x="123.25" y="79.02" width="8.04" height="8.04"/><rect class="cls-1" x="18.71" y="87.06" width="8.04" height="8.04"/><rect class="cls-1" x="18.71" y="95.1" width="8.04" height="8.04"/><rect class="cls-2" x="26.75" y="87.06" width="8.04" height="8.04"/><rect class="cls-3" x="34.8" y="87.06" width="8.04" height="8.04"/><rect class="cls-1" x="42.84" y="87.06" width="8.04" height="8.04"/><rect class="cls-2" x="50.88" y="87.06" width="8.04" height="8.04"/><rect class="cls-8" x="58.92" y="87.06" width="8.04" height="8.04"/><rect class="cls-4" x="66.96" y="87.06" width="8.04" height="8.04"/><rect class="cls-4" x="75" y="87.06" width="8.04" height="8.04"/><rect class="cls-7" x="83.04" y="87.06" width="8.04" height="8.04"/><rect class="cls-2" x="91.08" y="87.06" width="8.04" height="8.04"/><rect class="cls-1" x="99.12" y="87.06" width="8.04" height="8.04"/><rect class="cls-2" x="107.16" y="87.06" width="8.04" height="8.04"/><rect class="cls-3" x="115.2" y="87.06" width="8.04" height="8.04"/><rect class="cls-1" x="123.25" y="87.06" width="8.04" height="8.04"/><rect class="cls-5" x="26.75" y="95.1" width="8.04" height="8.04"/><rect class="cls-6" x="34.8" y="95.1" width="8.04" height="8.04"/><rect class="cls-1" x="26.75" y="103.14" width="8.04" height="8.04"/><rect class="cls-1" x="34.8" y="103.14" width="8.04" height="8.04"/><rect class="cls-1" x="42.84" y="95.1" width="8.04" height="8.04"/><rect class="cls-2" x="50.88" y="95.1" width="8.04" height="8.04"/><rect class="cls-8" x="58.92" y="95.1" width="8.04" height="8.04"/><rect class="cls-8" x="66.96" y="95.1" width="8.04" height="8.04"/><rect class="cls-7" x="75" y="95.1" width="8.04" height="8.04"/><rect class="cls-7" x="83.04" y="95.1" width="8.04" height="8.04"/><rect class="cls-2" x="91.08" y="95.1" width="8.04" height="8.04"/><rect class="cls-1" x="99.12" y="95.1" width="8.04" height="8.04"/><rect class="cls-6" x="107.16" y="95.1" width="8.04" height="8.04"/><rect class="cls-5" x="115.2" y="95.1" width="8.04" height="8.04"/><rect class="cls-1" x="123.25" y="95.1" width="8.04" height="8.04"/><rect class="cls-1" x="107.16" y="103.14" width="8.04" height="8.04"/><rect class="cls-1" x="115.2" y="103.14" width="8.04" height="8.04"/><rect class="cls-1" x="42.84" y="103.14" width="8.04" height="8.04"/><rect class="cls-2" x="50.88" y="103.14" width="8.04" height="8.04"/><rect class="cls-4" x="58.92" y="103.14" width="8.04" height="8.04"/><rect class="cls-7" x="66.96" y="103.14" width="8.04" height="8.04"/><rect class="cls-7" x="75" y="103.14" width="8.04" height="8.04"/><rect class="cls-7" x="83.04" y="103.14" width="8.04" height="8.04"/><rect class="cls-2" x="91.08" y="103.14" width="8.04" height="8.04"/><rect class="cls-1" x="99.12" y="103.14" width="8.04" height="8.04"/><rect class="cls-1" x="42.84" y="111.18" width="8.04" height="8.04"/><rect class="cls-9" x="50.88" y="111.18" width="8.04" height="8.04"/><rect class="cls-10" x="58.92" y="111.18" width="8.04" height="8.04"/><rect class="cls-10" x="66.96" y="111.18" width="8.04" height="8.04"/><rect class="cls-10" x="75" y="111.18" width="8.04" height="8.04"/><rect class="cls-10" x="83.04" y="111.18" width="8.04" height="8.04"/><rect class="cls-10" x="91.08" y="111.18" width="8.04" height="8.04"/><rect class="cls-1" x="99.12" y="111.18" width="8.04" height="8.04"/><rect class="cls-1" x="42.84" y="119.23" width="8.04" height="8.04"/><rect class="cls-9" x="50.88" y="119.23" width="8.04" height="8.04"/><rect class="cls-10" x="58.92" y="119.23" width="8.04" height="8.04"/><rect class="cls-1" x="66.96" y="119.23" width="8.04" height="8.04"/><rect class="cls-1" x="75" y="119.23" width="8.04" height="8.04"/><rect class="cls-1" x="66.96" y="127.27" width="8.04" height="8.04"/><rect class="cls-1" x="75" y="127.27" width="8.04" height="8.04"/><rect class="cls-9" x="83.04" y="119.23" width="8.04" height="8.04"/><rect class="cls-10" x="91.08" y="119.23" width="8.04" height="8.04"/><rect class="cls-1" x="99.12" y="119.23" width="8.04" height="8.04"/><rect class="cls-1" x="42.84" y="127.27" width="8.04" height="8.04"/><rect class="cls-1" x="99.12" y="127.27" width="8.04" height="8.04"/><rect class="cls-11" x="50.88" y="127.27" width="8.04" height="8.04"/><rect class="cls-12" x="58.92" y="127.27" width="8.04" height="8.04"/><rect class="cls-11" x="83.04" y="127.27" width="8.04" height="8.04"/><rect class="cls-12" x="91.08" y="127.27" width="8.04" height="8.04"/><rect class="cls-1" x="50.88" y="135.31" width="8.04" height="8.04"/><rect class="cls-1" x="58.92" y="135.31" width="8.04" height="8.04"/><rect class="cls-1" x="83.04" y="135.31" width="8.04" height="8.04"/><rect class="cls-1" x="91.08" y="135.31" width="8.04" height="8.04"/><rect class="cls-1" x="26.75" y="62.94" width="8.04" height="8.04"/><rect class="cls-1" x="34.8" y="62.94" width="8.04" height="8.04"/><rect class="cls-1" x="42.84" y="62.94" width="8.04" height="8.04"/><rect class="cls-1" x="50.88" y="62.94" width="8.04" height="8.04"/><rect class="cls-13" x="58.92" y="62.94" width="8.04" height="8.04"/><rect class="cls-14" x="66.96" y="62.94" width="8.04" height="8.04"/><rect class="cls-14" x="75" y="62.94" width="8.04" height="8.04"/><rect class="cls-15" x="83.04" y="62.94" width="8.04" height="8.04"/><rect class="cls-1" x="91.08" y="62.94" width="8.04" height="8.04"/><rect class="cls-1" x="99.12" y="62.94" width="8.04" height="8.04"/><rect class="cls-1" x="107.16" y="62.94" width="8.04" height="8.04"/><rect class="cls-1" x="115.2" y="62.94" width="8.04" height="8.04"/><rect class="cls-1" x="34.8" y="54.9" width="8.04" height="8.04"/><rect class="cls-5" x="42.84" y="54.9" width="8.04" height="8.04"/><rect class="cls-6" x="50.88" y="54.9" width="8.04" height="8.04"/><rect class="cls-3" x="58.92" y="54.9" width="8.04" height="8.04"/><rect class="cls-5" x="66.96" y="54.9" width="8.04" height="8.04"/><rect class="cls-6" x="75" y="54.9" width="8.04" height="8.04"/><rect class="cls-3" x="83.04" y="54.9" width="8.04" height="8.04"/><rect class="cls-6" x="91.08" y="54.9" width="8.04" height="8.04"/><rect class="cls-6" x="99.12" y="54.9" width="8.04" height="8.04"/><rect class="cls-1" x="107.16" y="54.9" width="8.04" height="8.04"/><rect class="cls-1" x="34.8" y="46.86" width="8.04" height="8.04"/><rect class="cls-5" x="42.84" y="46.86" width="8.04" height="8.04"/><rect class="cls-5" x="50.88" y="46.86" width="8.04" height="8.04"/><rect class="cls-15" x="58.92" y="46.86" width="8.04" height="8.04"/><rect class="cls-6" x="66.96" y="46.86" width="8.04" height="8.04"/><rect class="cls-6" x="75" y="46.86" width="8.04" height="8.04"/><rect class="cls-15" x="83.04" y="46.86" width="8.04" height="8.04"/><rect class="cls-5" x="91.08" y="46.86" width="8.04" height="8.04"/><rect class="cls-6" x="99.12" y="46.86" width="8.04" height="8.04"/><rect class="cls-1" x="107.16" y="46.86" width="8.04" height="8.04"/><rect class="cls-1" x="34.8" y="38.82" width="8.04" height="8.04"/><rect class="cls-13" x="42.84" y="38.82" width="8.04" height="8.04"/><rect class="cls-5" x="50.88" y="38.82" width="8.04" height="8.04"/><rect class="cls-5" x="58.92" y="38.82" width="8.04" height="8.04"/><rect class="cls-5" x="66.96" y="38.82" width="8.04" height="8.04"/><rect class="cls-5" x="75" y="38.82" width="8.04" height="8.04"/><rect class="cls-5" x="83.04" y="38.82" width="8.04" height="8.04"/><rect class="cls-5" x="91.08" y="38.82" width="8.04" height="8.04"/><rect class="cls-15" x="99.12" y="38.82" width="8.04" height="8.04"/><rect class="cls-1" x="107.16" y="38.82" width="8.04" height="8.04"/><rect class="cls-1" x="34.8" y="30.77" width="8.04" height="8.04"/><rect class="cls-1" x="34.8" y="22.73" width="8.04" height="8.04"/><rect class="cls-1" x="34.8" y="14.69" width="8.04" height="8.04"/><rect class="cls-13" x="42.84" y="30.77" width="8.04" height="8.04"/><rect class="cls-5" x="50.88" y="30.77" width="8.04" height="8.04"/><rect class="cls-15" x="58.92" y="30.77" width="8.04" height="8.04"/><rect class="cls-15" x="66.96" y="30.77" width="8.04" height="8.04"/><rect class="cls-15" x="75" y="30.77" width="8.04" height="8.04"/><rect class="cls-15" x="83.04" y="30.77" width="8.04" height="8.04"/><rect class="cls-6" x="91.08" y="30.77" width="8.04" height="8.04"/><rect class="cls-14" x="99.12" y="30.77" width="8.04" height="8.04"/><rect class="cls-1" x="107.16" y="30.77" width="8.04" height="8.04"/><rect class="cls-13" x="42.84" y="22.73" width="8.04" height="8.04"/><rect class="cls-14" x="50.88" y="22.73" width="8.04" height="8.04"/><rect class="cls-15" x="58.92" y="22.73" width="8.04" height="8.04"/><rect class="cls-15" x="66.96" y="22.73" width="8.04" height="8.04"/><rect class="cls-15" x="75" y="22.73" width="8.04" height="8.04"/><rect class="cls-13" x="83.04" y="22.73" width="8.04" height="8.04"/><rect class="cls-14" x="91.08" y="22.73" width="8.04" height="8.04"/><rect class="cls-1" x="99.12" y="22.73" width="8.04" height="8.04"/><rect class="cls-1" x="42.84" y="14.69" width="8.04" height="8.04"/><rect class="cls-14" x="50.88" y="14.69" width="8.04" height="8.04"/><rect class="cls-15" x="58.92" y="14.69" width="8.04" height="8.04"/><rect class="cls-15" x="66.96" y="14.69" width="8.04" height="8.04"/><rect class="cls-14" x="75" y="14.69" width="8.04" height="8.04"/><rect class="cls-13" x="83.04" y="14.69" width="8.04" height="8.04"/><rect class="cls-15" x="91.08" y="14.69" width="8.04" height="8.04"/><rect class="cls-1" x="99.12" y="14.69" width="8.04" height="8.04"/><rect class="cls-1" x="50.88" y="6.65" width="8.04" height="8.04"/><rect class="cls-1" x="58.92" y="6.65" width="8.04" height="8.04"/><rect class="cls-1" x="66.96" y="6.65" width="8.04" height="8.04"/><rect class="cls-1" x="75" y="6.65" width="8.04" height="8.04"/><rect class="cls-1" x="83.04" y="6.65" width="8.04" height="8.04"/><rect class="cls-1" x="91.08" y="6.65" width="8.04" height="8.04"/></svg>